<?xml version="1.0" encoding="UTF-8"?>
<svg id="svg6" version="1.1" viewBox="0 0 179 32" xmlns="http://www.w3.org/2000/svg">
 <g id="g4" fill="#252525" fill-rule="evenodd">
  <path id="path851" d="m24.233632 7.9024368h-7.739046l3.177218-2.9950469c0.438721-0.4139277 0.464052-1.1108137 0.055514-1.5560016-0.407999-0.4457267-1.095183-0.4705193-1.534443-0.0565916l-4.887364 4.6076401-4.886826-4.6076401c-0.4397981-0.4139277-1.1264437-0.3891351-1.5349817 0.0565916-0.408538 0.4451879-0.3832065 1.1420739 0.0560527 1.5560016l3.176679 2.9950469h-7.7374289c-1.3118488 0-2.3790061 1.0666183-2.3790061 2.3838572v14.297751c0 1.317778 1.0671573 2.386013 2.3790061 2.386013h3.0144498l1.7963814 2.093353c0.2996664 0.34979 0.7868937 0.34979 1.0870991 0l1.7958426-2.093353h6.465464l1.795842 2.093353c0.300744 0.34979 0.787433 0.34979 1.087638 0l1.796381-2.093353h3.015528c1.315622 0 2.377928-1.068235 2.377928-2.386013v-14.297751c0-1.3172389-1.062306-2.3838572-2.377928-2.3838572"/>
  <path id="path849" d="m55.85652 9.9532112c0-1.2223801-0.977689-2.2135429-2.183361-2.2135429h-14.097794c-1.206211 0-2.18336 0.9911628-2.18336 2.2135429 0 1.2223798 0.977149 2.2135428 2.18336 2.2135428h14.097794c1.205672 0 2.183361-0.991163 2.183361-2.2135428"/>
  <path id="path847" d="m56.043542 24.956472c0-1.22238-0.97715-2.213543-2.183361-2.213543h-14.511183c-1.205672 0-2.182821 0.991163-2.182821 2.213543s0.977149 2.213543 2.182821 2.213543h14.511183c1.206211 0 2.183361-0.991163 2.183361-2.213543"/>
  <path id="path845" d="m79.681614 21.858482v-9.076226c0-2.9298319-2.350441-5.3126108-5.238233-5.3126108h-11.211619c-1.205133 0-2.18336 0.9911627-2.18336 2.2140818 0 1.22238 0.978227 2.213543 2.18336 2.213543h10.119669c1.171179 0 1.964001 0.773419 1.964001 1.99041v6.863761c0 1.292446-0.718984 1.991488-1.964001 1.991488h-10.119669c-1.205133 0-2.18336 0.991163-2.18336 2.213543s0.978227 2.213543 2.18336 2.213543h11.211619c2.887792 0 5.238233-2.382779 5.238233-5.311533"/>
  <path id="path843" d="m103.79613 9.9532112c0-1.2223801-0.97768-2.2135429-2.18336-2.2135429h-14.09779c-1.206211 0-2.183361 0.9911628-2.183361 2.2135429 0 1.2223798 0.97715 2.2135428 2.183361 2.2135428h14.09779c1.20568 0 2.18336-0.991163 2.18336-2.2135428"/>
  <path id="path841" d="m104.00295 24.956456c0-1.22238-0.97769-2.213543-2.18336-2.213543h-14.511574c-1.205672 0-2.183361 0.991163-2.183361 2.213543s0.977689 2.213543 2.183361 2.213543h14.511724c1.20513 0 2.18336-0.991163 2.18336-2.213543"/>
  <path id="path839" d="m127.64048 21.858466v-9.076226c0-2.929832-2.3499-5.3126109-5.23877-5.3126109h-11.21054c-1.20621 0-2.18336 0.9911627-2.18336 2.2140818 0 1.2223801 0.97715 2.2135431 2.18336 2.2135431h10.11967c1.17118 0 1.96292 0.773419 1.96292 1.99041v6.863761c0 1.292446-0.71898 1.991488-1.96292 1.991488h-10.11967c-1.20621 0-2.18336 0.991163-2.18336 2.213543s0.97715 2.213543 2.18336 2.213543h11.21054c2.88887 0 5.23877-2.382779 5.23877-5.311533"/>
  <path id="path837" d="m148.75586 8.5351562c-1.16309 0-2.2571 0.070313-3.39648 0.070313-0.45111 0-0.88725 0.015902-1.375 0.00781h-0.14258c-0.97338 0-1.47266 0.6892296-1.47266 1.3769532 0 0.6888016 0.47585 1.4171096 1.61524 1.3691406 0.14227 0 0.23632 0.142633 0.23632 0.59375 0.0237 0.949123 0.0234 3.821476 0.0234 6.457031 0 5.603115-0.0234 5.603516-0.35547 5.603516-1.02135 0-1.54297 0.687014-1.54297 1.351562 0 0.759945 0.5693 1.377507 1.61328 1.330078 0.0954 0 1.04614-0.02344 2.06641-0.02344 0.5228 0 1.06813-2.73e-4 1.54297 0.02344h0.0957c0.92541 0 1.47071-0.687074 1.47071-1.376953 0-0.616041-0.47473-1.257797-1.54297-1.304687-0.33308-0.02425-0.54492-0.261484-0.54492-0.570313-0.0237-1.495098-0.0723-3.465535-0.0723-4.652343 0-0.546514 0.19046-0.546875 1.63867-0.546875 0.47483 0 1.23372 0.664367 2.82422 3.251953 0.0711 0.09378 1.31257 2.090381 1.30664 2.302734-5e-3 0.197262-0.1197 0.332294-0.23828 0.355469-0.66508 0.190256-0.99805 0.760126-0.99805 1.306641 0 0.617118 0.45269 1.210937 1.40235 1.210937h0.11914c0.49801-0.02425 1.06675-0.02344 1.66015-0.02344 0.61712 0 1.28218-8.13e-4 1.94727 0.02344h0.0957c1.02027 0 1.58985-0.73475 1.58985-1.447266 0-0.665087-0.44964-1.307485-1.44727-1.402343-0.0237 0-0.14231-0.04687-0.16602-0.04687-0.35626-0.119112-0.6415-0.283565-1.02148-0.830079-0.66454-0.972836-1.02015-1.592185-1.58984-2.470703-0.54598-0.854804-1.02241-1.542803-1.73438-2.46875-0.0474-0.07114-0.0703-0.141761-0.0703-0.166015 0-0.141748 0.18973-0.188898 0.37891-0.236328 1.971-0.451655 3.20507-2.374697 3.20507-4.345704 0-2.017357-1.42486-4.3912055-5.48437-4.6757808-0.56969-0.047429-1.11392-0.046875-1.63672-0.046875zm-0.17578 2.5878908c0.092-1e-3 0.18911 0 0.29297 0 0.47483 0 0.97323-2.73e-4 1.25781 0.02344 1.97101 0.118034 2.84961 1.115359 2.84961 2.183594 0 1.186269-1.06743 2.421349-2.68164 2.587891-0.40369 0.04797-0.87869 0.07031-1.35352 0.07031-1.54253 0-1.94726-0.04778-1.94726-0.59375 0.0237-1.35281 1e-3 -2.918591 0.0488-3.488281 0.0667-0.623013 0.15336-0.767743 1.5332-0.783203z"/>
  <path id="path833" d="m165.17773 14.587891c-3.1341 0-5.74414 2.517729-5.74414 6.197265 0 3.632647 2.46774 6.101563 5.79102 6.101563 2.49273 0 3.70495-0.760779 4.91601-1.996094 0.28458-0.30829 0.40235-0.640929 0.40235-0.949219 0-0.736231-0.68787-1.40039-1.40039-1.40039-0.33201 0-0.64066 0.119444-0.92578 0.427734-0.66455 0.711977-1.54372 1.400391-2.96875 1.400391-1.47138 0-2.96707-1.043745-2.99024-2.800782 0-0.237146 0.0469-0.474609 0.16602-0.474609 0.52226 0 2.13717 0.02344 3.63281 0.02344 0.73623 0 1.44844 2.82e-4 1.9707-0.02344 1.63847-0.04797 2.44532-1.045074 2.44532-2.232422 0-1.733322-1.8768-4.273437-5.29493-4.273437zm0.0234 2.351562c2.01844 0 2.44531 1.186434 2.44531 1.566406 0 0.260322-0.21262 0.355469-0.40234 0.355469-0.64137 0.02371-1.61617 0.02344-2.49414 0.02344-2.06533 0-2.25391-0.02372-2.25391-0.166016 0-0.617119 1.11459-1.779297 2.70508-1.779297z"/>
  <path id="path829" d="m176.42696 26.531876c1.6832-2.605911 2.57304-5.625212 2.57304-8.73452 0-3.566892-1.14154-6.94784-3.30172-9.7779631-0.26517-0.3492515-0.6667-0.5497477-1.10165-0.5497477-0.30883 0-0.60257 0.098631-0.8478 0.2840363-0.29481 0.2247498-0.48453 0.5513646-0.53304 0.9205579-0.0496 0.3686543 0.0474 0.7340748 0.27272 1.0288905 1.78506 2.3380441 2.72826 5.1369071 2.72826 8.0942261 0 2.566567-0.73462 5.065763-2.12515 7.226487-0.20212 0.315297-0.27003 0.686646-0.19188 1.047216 0.0803 0.36542 0.29428 0.675866 0.60203 0.873667 0.23391 0.147139 0.49477 0.225289 0.75725 0.225289 0.47268 0 0.90924-0.238763 1.16794-0.638139"/>
  <path id="path2" d="m137.65682 26.945804c0.3099-0.198879 0.52495-0.509325 0.60472-0.874745 0.0787-0.36057 0.0108-0.731919-0.19133-1.046677-1.39054-2.161263-2.12623-4.660459-2.12623-7.227026 0-2.957319 0.94373-5.756182 2.72879-8.0936871 0.46459-0.6090342 0.34494-1.4837798-0.26732-1.9510653-0.24038-0.1848662-0.53143-0.2829584-0.8408-0.2829584-0.43494 0-0.83647 0.2004962-1.10219 0.5497477-2.15964 2.8301231-3.30118 6.2110711-3.30118 9.7779631 0 3.109308 0.88984 6.128609 2.57304 8.733442 0.2587 0.400454 0.69527 0.639217 1.16848 0.639217 0.2614 0 0.5228-0.07815 0.75402-0.224211"/>
 </g>
</svg>
